PathFileType	4	(X/Y/Z)	pose_F01_0-75.trc
DataRate	CameraRate	NumFrames	NumMarkers	Units	OrigDataRate	OrigDataStartFrame	OrigNumFrames
30	30	4	21	m	30	0	75
Frame#	Time	CHip			RHip			RKnee			RAnkle			RBigToe			RSmallToe			RHeel			LHip			LKnee			LAnkle			LBigToe			LSmallToe			LHeel			Neck			Nose			RShoulder			RElbow			RWrist			LShoulder			LElbow			LWrist			
		X1	Y1	Z1	X2	Y2	Z2	X3	Y3	Z3	X4	Y4	Z4	X5	Y5	Z5	X6	Y6	Z6	X7	Y7	Z7	X8	Y8	Z8	X9	Y9	Z9	X10	Y10	Z10	X11	Y11	Z11	X12	Y12	Z12	X13	Y13	Z13	X14	Y14	Z14	X15	Y15	Z15	X16	Y16	Z16	X17	Y17	Z17	X18	Y18	Z18	X19	Y19	Z19	X20	Y20	Z20	X21	Y21	Z21	
0	0.0	-0.23337789712050364	1.8865673310493947	-0.5924559811335567	-0.2506997111357477	1.88000077510275	-0.53021512106725	-0.25264065835909233	1.7250280865155587	-0.498709330327584	-0.24492788398404422	1.5867696038270696	-0.511121874455674	-0.24132036020226097	1.5543661269284683	-0.5731995617204124	-0.24822941104134155	1.5560596118292858	-0.5353006999734503	-0.23813809760258234	1.575775790663957	-0.5076468453110238	-0.21435007288546806	1.890985121436091	-0.663235921513388	-0.21228513235374338	1.728985008880328	-0.6165371029996924	-0.2183512114085067	1.5856674766286507	-0.5959890288165831	-0.22041004117062904	1.5478641236649688	-0.6586031105970594	-0.20659532577412826	1.556742246240926	-0.6690271444395594	-0.22279762758029648	1.5690175891295781	-0.5729865756052198	-0.23094134181653797	2.055122061633739	-0.5941553443634399	-0.23472851146885768	2.127308772376375	-0.6409797618988532	-0.25902872728283083	2.0529350792399197	-0.5013340674594806	-0.2623370542285164	1.9560869480717649	-0.462605877025417	-0.27349725471284325	1.8694667305751547	-0.47026188122990903	-0.200903788030276	2.0607837238547297	-0.6822008548737986	-0.19402899663893716	1.9771523987387842	-0.6991609412232402	-0.1920136670610802	1.8902883542420017	-0.7121442859133019
1	0.03333333333333333	-0.23364341961268603	1.8861496980569605	-0.5924548406105536	-0.2509655822537074	1.8799523544896481	-0.5302794366419397	-0.25370983669770136	1.725871650681759	-0.5018973238379557	-0.24492788398404422	1.5867696038270696	-0.511121874455674	-0.24132036020226097	1.5543661269284683	-0.5731995617204124	-0.24822941104134155	1.5560596118292858	-0.5353006999734503	-0.23813809760258234	1.575775790663957	-0.5076468453110238	-0.21454891884071073	1.8898866930435754	-0.6629709936503575	-0.21374058856134234	1.7308432019457083	-0.6191585535386617	-0.21831858860771172	1.5856654209855487	-0.5960028371429439	-0.2185052405535278	1.546432308323956	-0.6602017071849269	-0.2073928996569416	1.5564438686929942	-0.672126016140418	-0.22228761920498827	1.5714784738960348	-0.5695894193413611	-0.23097278205202262	2.055097260191236	-0.5941453439974425	-0.2347375470518029	2.1272767109587742	-0.6409565095200543	-0.25908510550920943	2.052888172217775	-0.5012547752779614	-0.26428454220145037	1.9561453347188928	-0.46038687816802754	-0.2753616106788198	1.8714815187348375	-0.4679781468881077	-0.2008484639668917	2.0598538074081567	-0.6818617786168826	-0.19414709089821505	1.97599663070055	-0.6992138613659696	-0.1924694031465078	1.8920846860590552	-0.715176244748508
2	0.06666666666666667	-0.23390894210486843	1.8857320650645264	-0.5924537000875506	-0.25123145337166713	1.8799039338765462	-0.5303437522166293	-0.2547790150363104	1.7267152148479594	-0.5050853173483274	-0.24492788398404422	1.5867696038270696	-0.511121874455674	-0.24132036020226097	1.5543661269284683	-0.5731995617204124	-0.24822941104134155	1.5560596118292858	-0.5353006999734503	-0.23813809760258234	1.575775790663957	-0.5076468453110238	-0.2147477647959534	1.8887882646510596	-0.662706065787327	-0.2151960447689413	1.7327013950110886	-0.6217800040776309	-0.21828596580691675	1.5856633653424468	-0.5960166454693047	-0.21660043993642655	1.545000492982943	-0.6618003037727943	-0.20819047353975495	1.5561454911450625	-0.6752248878412767	-0.22177761082968006	1.5739393586624915	-0.5661922630775024	-0.23100422228750728	2.0550724587487332	-0.594135343631445	-0.2347465826347481	2.1272446495411734	-0.6409332571412555	-0.25914148373558804	2.0528412651956303	-0.5011754830964421	-0.26623203017438435	1.9562037213660208	-0.45816787931063807	-0.2772259666447964	1.8734963068945203	-0.46569441254630634	-0.20079313990350742	2.0589238909615837	-0.6815227023599666	-0.19426518515749294	1.974840862662316	-0.699266781508699	-0.19292513923193538	1.8938810178761087	-0.7182082035837142
3	0.1	-0.23233190226128356	1.8866386152707322	-0.5976425684142911	-0.25097465165195953	1.8799563819936598	-0.5303491899025825	-0.25354340723201946	1.7269419464764673	-0.5022947330888253	-0.24492788398404422	1.5867696038270696	-0.511121874455674	-0.24132036020226097	1.5543661269284683	-0.5731995617204124	-0.24822941104134155	1.5560596118292858	-0.5353006999734503	-0.23813809760258234	1.575775790663957	-0.5076468453110238	-0.21226263275813706	1.8879009144270422	-0.6648165193425744	-0.21389414097384127	1.7322121188711952	-0.619191950231425	-0.21710537378013214	1.587136767345476	-0.5933553823279856	-0.21699673283555518	1.5476847266451752	-0.6661468304026975	-0.2083401420824899	1.5568171431265478	-0.6752845351716065	-0.22154765423200148	1.572915929106487	-0.5660949235693785	-0.23177640327577498	2.0562516001632307	-0.5970428326636444	-0.23679674013613242	2.1269514009255888	-0.6388285057933649	-0.25902252541347526	2.054023459088966	-0.5010631850221733	-0.2661475343222494	1.9570943804967935	-0.45806737697358085	-0.27316622892679515	1.8725615750719238	-0.4703529630224944	-0.2024811361640235	2.058978241279516	-0.6875752346636476	-1.3186018281487624	1.8735033068695874	0.47296666647325225	-0.1927432962832064	1.8930903091542177	-0.7181392307416192
